<svg xmlns="http://www.w3.org/2000/svg" width="271.942" height="271.942" viewBox="0 0 271.942 271.942">
  <path id="Icon_awesome-medal" data-name="Icon awesome-medal" 
  d="M118.842,69.446,82.124,8.254A17,17,0,0,0,67.55,0H8.514A8.5,8.5,0,0,0,1.551,13.374L60.65,97.8A109.923,109.923,0,0,1,118.842,69.446ZM263.428,0H204.392a17,17,0,0,0-14.574,8.254L153.1,69.446A109.955,109.955,0,0,1,211.291,97.8l59.1-84.424A8.5,8.5,0,0,0,263.428,0ZM135.971,84.982a93.48,93.48,0,1,0,93.48,93.48A93.482,93.482,0,0,0,135.971,84.982Zm49.141,83.527-20.146,19.631,4.764,27.736a6.1,6.1,0,0,1-8.843,6.421L135.971,209.2,111.06,222.3a6.1,6.1,0,0,1-8.843-6.421l4.764-27.736L86.835,168.509a6.1,6.1,0,0,1,3.373-10.4l27.848-4.058,12.445-25.24a6.11,6.11,0,0,1,10.947,0l12.445,25.24,27.848,4.058a6.1,6.1,0,0,1,3.373,10.4Z" 
  transform="translate(0)"
  fill ="#ffffff"/>
</svg>